<?xml version="1.0" standalone="no"?>
<!DOCTYPE svg PUBLIC "-//W3C//DTD SVG 20010904//EN"
 "http://www.w3.org/TR/2001/REC-SVG-20010904/DTD/svg10.dtd">
<svg version="1.0" xmlns="http://www.w3.org/2000/svg"
 width="769.000000pt" height="769.000000pt" viewBox="0 0 769.000000 769.000000"
 preserveAspectRatio="xMidYMid meet">
<metadata>
Created by potrace 1.11, written by Peter Selinger 2001-2013
</metadata>
<g transform="translate(0.000000,769.000000) scale(0.100000,-0.100000)"
fill="#000000" stroke="none">
<path d="M3600 7684 c-19 -2 -84 -9 -145 -15 -690 -68 -1361 -331 -1920 -752
-217 -164 -472 -407 -640 -610 -420 -507 -712 -1128 -825 -1757 -55 -306 -80
-684 -61 -927 43 -567 172 -1032 422 -1523 189 -373 407 -670 713 -975 616
-613 1387 -983 2276 -1092 276 -33 724 -23 1020 23 1316 207 2432 1082 2950
2313 109 260 234 705 277 991 25 159 24 667 0 888 -85 765 -372 1450 -854
2041 -104 128 -385 411 -503 507 -601 493 -1255 774 -2020 869 -118 15 -609
28 -690 19z m-1220 -729 c271 -65 440 -283 440 -564 0 -275 -142 -563 -394
-798 -377 -351 -888 -475 -1227 -297 -96 51 -182 140 -229 239 -50 104 -64
179 -57 308 13 252 129 486 352 712 225 227 507 375 790 415 81 12 245 4 325
-15z m2550 -1830 c257 -54 470 -221 585 -459 57 -118 74 -187 82 -321 21 -394
-223 -734 -614 -851 -119 -36 -306 -38 -428 -5 -305 82 -527 304 -611 611 -25
92 -26 309 0 405 83 315 327 550 646 621 78 17 256 17 340 -1z m-1386 -1432
c132 -268 334 -469 604 -603 219 -108 477 -156 702 -131 248 28 448 104 650
246 87 62 261 237 310 313 18 28 39 52 46 52 42 0 409 -88 628 -151 192 -55
579 -184 814 -272 l194 -72 -6 -40 c-9 -71 -94 -351 -152 -502 -131 -344 -297
-633 -569 -989 -157 -205 -433 -473 -686 -666 -87 -66 -306 -207 -430 -276
-120 -67 -336 -170 -389 -187 -14 -4 -29 -11 -35 -15 -5 -4 -85 -33 -176 -63
-451 -152 -889 -215 -1359 -195 -705 30 -1351 243 -1945 641 -203 136 -341
252 -551 461 -465 467 -773 994 -954 1635 -22 79 -40 152 -40 161 0 20 10 25
250 112 680 248 1385 434 1965 518 44 6 107 15 140 20 146 21 387 46 585 60
144 10 203 13 320 18 l46 2 38 -77z"/>
<path d="M4625 4934 c-152 -30 -316 -142 -403 -276 -281 -432 24 -998 538
-998 252 0 465 133 580 361 44 86 63 172 63 284 1 180 -60 325 -193 456 -156
155 -364 217 -585 173z m253 -50 c276 -57 472 -293 474 -572 2 -172 -51 -302
-171 -423 -189 -190 -454 -233 -694 -113 -140 71 -261 222 -302 379 -19 76
-19 224 0 299 41 158 159 303 306 375 138 68 248 84 387 55z"/>
</g>
</svg>
